HIERARCHY
ROOT locator2
{
  OFFSET 53.6172 30.1899 0.816905
  CHANNELS 6 Xposition Yposition Zposition Zrotation Xrotation Yrotation
  JOINT koshi
  {
    OFFSET 0 0 0
    CHANNELS 6 Xposition Yposition Zposition Zrotation Xrotation Yrotation
    JOINT sippo01
    {
      OFFSET 0 42.8363 -0.548134
      CHANNELS 6 Xposition Yposition Zposition Zrotation Xrotation Yrotation
      JOINT sippo02
      {
        OFFSET 0 44.0461 -3.28882
        CHANNELS 6 Xposition Yposition Zposition Zrotation Xrotation Yrotation
        JOINT sippo03
        {
          OFFSET 0 34.1929 -2.46662
          CHANNELS 6 Xposition Yposition Zposition Zrotation Xrotation Yrotation
          JOINT sippo04
          {
            OFFSET 0 30.0959 -1.75404
            CHANNELS 6 Xposition Yposition Zposition Zrotation Xrotation Yrotation
            JOINT sippo05
            {
              OFFSET 0 28.3637 -1.75404
              CHANNELS 6 Xposition Yposition Zposition Zrotation Xrotation Yrotation
              JOINT sippo06
              {
                OFFSET 0 31.6071 -3.2043
                CHANNELS 6 Xposition Yposition Zposition Zrotation Xrotation Yrotation
                End Site
                {
                  OFFSET 0 0 0
                }
              }
            }
          }
        }
      }
    }
    JOINT R_momo
    {
      OFFSET -27.891 13.5892 3.92723
      CHANNELS 6 Xposition Yposition Zposition Zrotation Xrotation Yrotation
      JOINT R_hiza
      {
        OFFSET 0 28.01 1.8232
        CHANNELS 6 Xposition Yposition Zposition Zrotation Xrotation Yrotation
        JOINT R_ashi
        {
          OFFSET 0 24.3992 -2.49174
          CHANNELS 6 Xposition Yposition Zposition Zrotation Xrotation Yrotation
          End Site
          {
            OFFSET 0 0 0
          }
        }
      }
    }
    JOINT L_momo
    {
      OFFSET 27.891 13.5892 3.92714
      CHANNELS 6 Xposition Yposition Zposition Zrotation Xrotation Yrotation
      JOINT L_hiza
      {
        OFFSET 0 28.0098 1.82319
        CHANNELS 6 Xposition Yposition Zposition Zrotation Xrotation Yrotation
        JOINT L_ashi
        {
          OFFSET 0 24.3992 -2.49171
          CHANNELS 6 Xposition Yposition Zposition Zrotation Xrotation Yrotation
          End Site
          {
            OFFSET 0 0 0
          }
        }
      }
    }
  }
  JOINT hara
  {
    OFFSET 0 2.15392 0
    CHANNELS 6 Xposition Yposition Zposition Zrotation Xrotation Yrotation
    JOINT mune
    {
      OFFSET 0 62.0609 0.472494
      CHANNELS 6 Xposition Yposition Zposition Zrotation Xrotation Yrotation
      JOINT R_kata
      {
        OFFSET 22.6695 9.65301 -5.3622
        CHANNELS 6 Xposition Yposition Zposition Zrotation Xrotation Yrotation
        JOINT R_hiji
        {
          OFFSET 0 25.813 1.69098
          CHANNELS 6 Xposition Yposition Zposition Zrotation Xrotation Yrotation
          JOINT R_te
          {
            OFFSET 0 28.5636 -0.966307
            CHANNELS 6 Xposition Yposition Zposition Zrotation Xrotation Yrotation
            End Site
            {
              OFFSET 0 0 0
            }
          }
        }
      }
      JOINT L_kata
      {
        OFFSET -22.6695 9.65298 -5.3622
        CHANNELS 6 Xposition Yposition Zposition Zrotation Xrotation Yrotation
        JOINT L_hiji
        {
          OFFSET 0 25.813 1.69102
          CHANNELS 6 Xposition Yposition Zposition Zrotation Xrotation Yrotation
          JOINT L_te
          {
            OFFSET 0 28.5636 -0.966295
            CHANNELS 6 Xposition Yposition Zposition Zrotation Xrotation Yrotation
            End Site
            {
              OFFSET 0 0 0
            }
          }
        }
      }
      JOINT kubi
      {
        OFFSET 0 23.1438 -0.944988
        CHANNELS 6 Xposition Yposition Zposition Zrotation Xrotation Yrotation
        JOINT atama
        {
          OFFSET 0 20.8625 4.12737
          CHANNELS 6 Xposition Yposition Zposition Zrotation Xrotation Yrotation
          JOINT ago
          {
            OFFSET 0 7.552 -7.58201
            CHANNELS 6 Xposition Yposition Zposition Zrotation Xrotation Yrotation
            End Site
            {
              OFFSET 0 0 0
            }
          }
        }
      }
    }
  }
}
MOTION
Frames:	6
Frame Time:	0.0333333
-0.00227404 26.5758 -7.07724e-006 -90 -3.50835e-015 -90 0 0 0 -174.665 3.09292 0.502522 -2.38419e-007 42.8363 -0.548132 2.96553 -15.9215 3.73647 -4.47035e-007 44.0461 -3.28882 5.34897 9.38835 -5.26368 -1.90735e-006 34.1929 -2.46661 6.37157 1.0684 -1.73166 -1.90735e-006 30.0959 -1.75403 5.97933 9.40522 -0.748008 -3.8147e-006 28.3637 -1.75403 9.4143 -5.86814 5.7772 -7.62939e-006 31.6072 -3.2043 5.22363 -6.17276 -5.4479 -27.891 13.5892 3.92724 117.515 -18.6478 -48.4484 -3.8147e-006 28.01 1.8232 12.021 -82.3066 -3.9423 -7.10543e-015 24.3992 -2.49173 -149.816 63.0175 -167.615 27.891 13.5892 3.92714 -102.232 -21.3557 59.5564 3.8147e-006 28.0098 1.82319 -3.56852 -68.4987 9.57218 -3.8147e-006 24.3992 -2.49173 140.882 67.258 166.774 6.07685e-007 2.15392 3.55271e-015 5.54899e-008 -0.418241 -5.54899e-008 0.0479851 62.0609 0.472494 -1.51661e-021 -2.62894e-017 -1.51661e-021 22.6769 9.63546 -5.36227 -148.452 2.75899 46.5031 3.8147e-006 25.813 1.69097 179.965 -77.8777 179.749 -3.8147e-006 28.5636 -0.966309 40.973 13.2125 -94.4041 -22.662 9.67049 -5.36214 130.711 -5.3145 -52.4408 0 25.813 1.69103 -179.768 -75.2962 -178.038 -1.14441e-005 28.5636 -0.966298 -44.2903 34.5194 110.025 0.0178915 23.1438 -0.944994 -0.061921 -3.98818 -0.10427 -3.72529e-009 20.8625 4.12738 -0.0887554 -4.06672 -0.134451 -2.77556e-017 7.55202 -7.58201 1.86358e-005 4.26938 -1.86454e-005 
0.318841 27.3187 0.450784 -90 -3.50835e-015 -90 0 0 0 -175.215 2.49174 0.548315 -2.38419e-007 42.8363 -0.548132 2.40617 -15.4088 4.05912 -5.5163e-007 44.0461 -3.28882 4.91247 10.2491 -5.07695 -1.97199e-006 34.1929 -2.46661 5.76605 1.46281 -2.02753 -2.07574e-006 30.0959 -1.75403 3.9368 9.19875 -1.90142 -4.36595e-006 28.3637 -1.75403 8.84038 -3.34517 5.42235 -8.20111e-006 31.6072 -3.2043 4.87239 -4.92381 -6.00268 -27.891 13.5892 3.92724 117.288 -19.237 -47.6196 -3.82982e-006 28.01 1.8232 12.8575 -82.0649 -3.63843 4.12701e-008 24.3992 -2.49173 -150.788 63.7484 -168.58 27.891 13.5892 3.92714 -100.198 -22.5578 60.6044 3.71256e-006 28.0098 1.82319 -3.2386 -66.1618 9.3251 -3.80571e-006 24.3992 -2.49173 139.852 68.5017 167.864 6.07685e-007 2.15392 -7.10543e-015 0.643736 -0.889386 0.0298295 6.21877e-009 62.0609 0.472494 -5.20617e-013 -1.76897e-016 -0 22.6695 9.65299 -5.36221 -147.385 4.15092 44.5868 3.8147e-006 25.813 1.69097 179.855 -79.1138 -179.652 -3.82841e-006 28.5636 -0.966309 42.9815 13.3015 -92.3971 -22.6695 9.65297 -5.3622 131.167 -7.28553 -53.5139 -7.10543e-015 25.813 1.69103 -179.742 -74.7303 -177.288 -1.1431e-005 28.5636 -0.966298 -43.8075 34.0375 111.563 2.79235e-009 23.1438 -0.944994 -0.929598 -3.05908 0.858332 -3.72568e-009 20.8625 4.12738 -0.877911 -3.1333 0.882575 -2.5158e-008 7.55202 -7.58201 -1.72168e-006 4.60178 1.56363e-007 
0.63372 28.0471 0.892821 -90 -3.50835e-015 -90 0 0 0 -175.754 1.90121 0.581792 -2.38419e-007 42.8363 -0.548132 1.86107 -14.9047 4.38526 -6.53826e-007 44.0461 -3.28882 3.68058 11.5181 -4.59499 -1.9864e-006 34.1929 -2.46661 4.25851 2.28695 -2.52014 -2.38879e-006 30.0959 -1.75403 1.7188 9.33322 -3.11003 -5.14481e-006 28.3637 -1.75403 7.39654 1.17557 4.91457 -9.30831e-006 31.6072 -3.2043 4.20022 -2.12017 -7.40603 -27.891 13.5892 3.92724 115.867 -19.0667 -45.8403 -3.87455e-006 28.01 1.8232 13.6357 -81.8249 -4.66744 1.02957e-007 24.3992 -2.49173 -151.787 64.4606 -170.521 27.891 13.5892 3.92714 -98.0578 -23.5565 61.7177 3.60971e-006 28.0098 1.82319 -2.97318 -63.8698 9.02517 -3.8075e-006 24.3992 -2.49173 138.703 69.7148 169.062 6.07685e-007 2.15392 -7.10543e-015 2.15552 -0.965967 0.102107 3.72529e-009 62.0609 0.472494 -1.00179e-005 -1.02138e-013 1.17034e-014 22.6695 9.65299 -5.36221 -145.354 4.94168 42.0629 3.8147e-006 25.813 1.69097 179.413 -85.5666 -179.401 -3.82626e-006 28.5636 -0.966309 44.1654 11.914 -88.5213 -22.6695 9.65297 -5.3622 131.218 -10.6719 -52.8165 0 25.813 1.69103 -179.741 -72.9055 -176.578 -1.14141e-005 28.5636 -0.966298 -46.395 33.7325 116.626 2.60516e-009 23.1438 -0.944994 -2.41274 -3.05628 3.42953 -3.72575e-009 20.8625 4.12738 -2.1973 -3.13123 3.61971 -6.87034e-008 7.55202 -7.58201 1.72367e-005 5.22122 -1.40403e-007 
0.818084 28.7826 1.04016 -90 -3.50835e-015 -90 0 0 0 -176.297 1.30333 0.604599 -2.38419e-007 42.8363 -0.548132 1.30815 -13.5733 4.70584 -7.45194e-007 44.0461 -3.28882 1.8188 12.8028 -3.80164 -1.95956e-006 34.1929 -2.46661 1.97384 3.67581 -3.26698 -2.85217e-006 30.0959 -1.75403 -0.598713 9.81015 -4.39246 -6.16156e-006 28.3637 -1.75402 5.24055 3.85435 4.92818 -1.08222e-005 31.6072 -3.20429 3.20232 1.40634 -9.341 -27.891 13.5892 3.92724 114.435 -18.8663 -44.0968 -3.90376e-006 28.01 1.8232 13.415 -80.9875 -6.92985 1.18378e-007 24.3992 -2.49173 -154.035 65.4 -171.242 27.891 13.5892 3.92714 -95.8171 -24.5528 62.8982 3.50499e-006 28.0098 1.82319 -2.7507 -61.5543 8.67687 -3.81641e-006 24.3992 -2.49173 138.965 70.3063 168.744 6.07685e-007 2.15392 0 4.17098 -0.494893 0.251363 3.72529e-009 62.0609 0.472494 -2.68121e-012 -6.21202e-018 2.68086e-012 22.6695 9.65299 -5.36221 -143.008 3.93305 39.2939 3.8147e-006 25.813 1.69097 1.77455 -87.9155 3.55368 -3.80542e-006 28.5636 -0.966309 45.3785 10.5605 -84.5506 -22.6695 9.65297 -5.3622 130.975 -15.0908 -49.9264 -3.55271e-014 25.813 1.69103 -179.739 -71.0619 -175.404 -1.1386e-005 28.5636 -0.966298 -49.2157 33.6539 122.177 2.60516e-009 23.1438 -0.944994 -4.21203 -3.51402 6.96197 -3.72575e-009 20.8625 4.12738 -3.53329 -4.059 7.22862 -1.15337e-007 7.55202 -7.58201 -2.42886e-008 3.26364 3.02236e-007 
0.995558 29.2587 1.29322 -90 -3.50835e-015 -90 0 0 0 -176.853 0.697458 0.616063 -2.38419e-007 42.8363 -0.548132 0.755802 -12.2265 5.25447 -8.43476e-007 44.0461 -3.28882 -0.472615 13.9025 -2.7259 -1.90749e-006 34.1929 -2.46661 -0.855135 5.4123 -3.91002 -3.42151e-006 30.0959 -1.754 -3.0261 10.8783 -5.55709 -7.31879e-006 28.3637 -1.75405 2.71281 3.26226 5.35612 -1.24197e-005 31.6072 -3.20425 1.9994 4.41279 -11.4374 -27.891 13.5892 3.92724 113.968 -17.9898 -41.9354 -3.97998e-006 28.01 1.8232 13.2391 -80.1468 -9.17092 7.63081e-008 24.3992 -2.49173 -156.462 66.3402 -171.811 27.891 13.5892 3.92714 -93.8039 -25.2939 62.6102 3.42886e-006 28.0098 1.82319 -2.56299 -59.2345 8.91693 -3.84518e-006 24.3992 -2.49173 140.938 71.339 167.365 6.07685e-007 2.15392 -3.55271e-015 6.39164 0.845518 0.399712 3.72529e-009 62.0609 0.472494 -5.1684e-014 -5.11311e-014 1.00179e-005 22.6695 9.65299 -5.36221 -141.367 0.0359853 38.1332 3.8147e-006 25.813 1.69097 0.377527 -77.2831 2.73957 -3.75036e-006 28.5636 -0.96631 46.2703 7.13015 -81.8103 -22.6695 9.65297 -5.3622 129.368 -21.0042 -45.3528 0 25.813 1.69103 -179.71 -71.2837 -174.191 -1.13634e-005 28.5636 -0.966298 -54.3544 32.7097 129.341 2.60516e-009 23.1438 -0.944994 -5.27082 -5.01477 10.023 -3.72575e-009 20.8625 4.12738 -4.55 -5.82572 10.3899 -1.54774e-007 7.55202 -7.58201 1.6528e-005 4.71796 8.62129e-006 
0.299637 29.7254 1.54137 -90 -3.50835e-015 -90 0 0 0 -178.076 0.10556 0.617289 -2.38419e-007 42.8363 -0.548132 0.110458 -10.9047 5.79725 -9.55026e-007 44.0461 -3.28882 -2.84689 14.6629 -1.50289 -1.85193e-006 34.1929 -2.46662 -3.73062 7.26255 -4.35423 -3.98636e-006 30.0959 -1.75405 -5.2893 12.5985 -6.53282 -8.3854e-006 28.3637 -1.75405 0.172792 1.52111 5.73889 -1.38169e-005 31.6072 -3.20432 0.748897 5.40385 -13.4345 -27.891 13.5892 3.92724 114.233 -16.0404 -37.2136 -4.1759e-006 28.01 1.8232 13.7728 -79.8427 -10.7468 2.62097e-008 24.3992 -2.49173 -158.262 69.7154 -174.005 27.891 13.5892 3.92714 -91.7061 -25.5511 63.5705 3.33298e-006 28.0098 1.82319 -2.53216 -58.7958 9.18619 -3.86014e-006 24.3992 -2.49173 143.077 72.3315 166.105 6.07685e-007 2.15392 -3.55271e-015 8.45352 2.14802 0.548948 3.72529e-009 62.0609 0.472494 -1.49009e-012 -2.73329e-016 1.49019e-012 22.6695 9.65299 -5.36221 -140.8 -5.78998 40.8191 3.8147e-006 25.813 1.69097 0.259034 -66.6212 2.23657 -3.72257e-006 28.5636 -0.966311 43.7327 2.70565 -81.4759 -22.6695 9.65297 -5.3622 124.342 -26.0969 -40.6668 -1.42109e-014 25.813 1.69103 -179.639 -73.5527 -172.957 -1.13529e-005 28.5636 -0.966298 -61.006 33.2786 135.143 2.60517e-009 23.1438 -0.944994 -5.14662 -7.58167 12.3148 -3.72575e-009 20.8625 4.12738 -4.91005 -8.58487 12.2891 -1.75705e-007 7.55202 -7.58201 -9.45899e-007 6.14564 8.40134e-007 
